<mxfile host="app.diagrams.net" modified="2024-07-13T00:32:11.780Z" agent="Mozilla/5.0 (Windows NT 10.0; Win64; x64) AppleWebKit/537.36 (KHTML, like Gecko) Chrome/126.0.0.0 Safari/537.36" etag="wXkTWRd8kkPBs_q-7wH0" version="24.4.4" type="github">
  <diagram name="第 1 页" id="wdqCgXOw0XZaZs1apR_4">
    <mxGraphModel dx="1050" dy="522" grid="1" gridSize="10" guides="1" tooltips="1" connect="1" arrows="1" fold="1" page="1" pageScale="1" pageWidth="827" pageHeight="1169" math="0" shadow="0">
      <root>
        <mxCell id="0" />
        <mxCell id="1" parent="0" />
        <mxCell id="VPeprKMhl3_eYJc57oR--1" value="0" style="ellipse;whiteSpace=wrap;html=1;aspect=fixed;fillColor=#008a00;strokeColor=#005700;fontColor=#ffffff;" vertex="1" parent="1">
          <mxGeometry x="70" y="90" width="80" height="80" as="geometry" />
        </mxCell>
        <mxCell id="VPeprKMhl3_eYJc57oR--7" style="rounded=0;orthogonalLoop=1;jettySize=auto;html=1;entryX=0.5;entryY=0;entryDx=0;entryDy=0;" edge="1" parent="1" source="VPeprKMhl3_eYJc57oR--2" target="VPeprKMhl3_eYJc57oR--3">
          <mxGeometry relative="1" as="geometry" />
        </mxCell>
        <mxCell id="VPeprKMhl3_eYJc57oR--2" value="1" style="ellipse;whiteSpace=wrap;html=1;aspect=fixed;fillColor=#008a00;strokeColor=#005700;fontColor=#ffffff;" vertex="1" parent="1">
          <mxGeometry x="240" y="100" width="80" height="80" as="geometry" />
        </mxCell>
        <mxCell id="VPeprKMhl3_eYJc57oR--3" value="2" style="ellipse;whiteSpace=wrap;html=1;aspect=fixed;fillColor=#008a00;strokeColor=#005700;fontColor=#ffffff;" vertex="1" parent="1">
          <mxGeometry x="170" y="270" width="80" height="80" as="geometry" />
        </mxCell>
        <mxCell id="VPeprKMhl3_eYJc57oR--6" style="rounded=0;orthogonalLoop=1;jettySize=auto;html=1;exitX=1;exitY=0.5;exitDx=0;exitDy=0;entryX=0.045;entryY=0.395;entryDx=0;entryDy=0;entryPerimeter=0;" edge="1" parent="1" source="VPeprKMhl3_eYJc57oR--1" target="VPeprKMhl3_eYJc57oR--2">
          <mxGeometry relative="1" as="geometry" />
        </mxCell>
        <mxCell id="VPeprKMhl3_eYJc57oR--14" value="" style="edgeStyle=none;rounded=0;orthogonalLoop=1;jettySize=auto;html=1;strokeColor=default;align=center;verticalAlign=middle;fontFamily=Helvetica;fontSize=11;fontColor=default;labelBackgroundColor=default;endArrow=classic;" edge="1" parent="1" source="VPeprKMhl3_eYJc57oR--12" target="VPeprKMhl3_eYJc57oR--13">
          <mxGeometry relative="1" as="geometry" />
        </mxCell>
        <mxCell id="VPeprKMhl3_eYJc57oR--16" value="" style="edgeStyle=none;rounded=0;orthogonalLoop=1;jettySize=auto;html=1;strokeColor=default;align=center;verticalAlign=middle;fontFamily=Helvetica;fontSize=11;fontColor=default;labelBackgroundColor=default;endArrow=classic;" edge="1" parent="1" source="VPeprKMhl3_eYJc57oR--12" target="VPeprKMhl3_eYJc57oR--15">
          <mxGeometry relative="1" as="geometry" />
        </mxCell>
        <mxCell id="VPeprKMhl3_eYJc57oR--12" value="4" style="ellipse;whiteSpace=wrap;html=1;aspect=fixed;fillColor=#008a00;strokeColor=#005700;fontColor=#ffffff;" vertex="1" parent="1">
          <mxGeometry x="510" y="90" width="80" height="80" as="geometry" />
        </mxCell>
        <mxCell id="VPeprKMhl3_eYJc57oR--13" value="5" style="ellipse;whiteSpace=wrap;html=1;aspect=fixed;fillColor=#008a00;strokeColor=#005700;fontColor=#ffffff;" vertex="1" parent="1">
          <mxGeometry x="510" y="250" width="80" height="80" as="geometry" />
        </mxCell>
        <mxCell id="VPeprKMhl3_eYJc57oR--15" value="3" style="ellipse;whiteSpace=wrap;html=1;aspect=fixed;fillColor=#008a00;strokeColor=#005700;fontColor=#ffffff;" vertex="1" parent="1">
          <mxGeometry x="670" y="90" width="80" height="80" as="geometry" />
        </mxCell>
      </root>
    </mxGraphModel>
  </diagram>
</mxfile>
